<svg xmlns="http://www.w3.org/2000/svg" width="467" height="427" viewBox="0 0 467 427">
  <g fill="#DDE6F1" fill-rule="evenodd" transform="translate(-46 -14)">
    <path d="M39.5669774,226.55568 C32.2414361,233.913559 19.7158998,228.702409 19.7158998,218.296797 L19.7158998,52.183734 C19.7158998,34.265431 34.1777143,19.7397764 52.0172666,19.7397764 L196.72739,19.7397764 C214.566942,19.7397764 229.028756,34.265431 229.028756,52.183734 L229.028756,156.004398 C229.028756,173.922701 214.566942,188.448356 196.72739,188.448356 L77.5068204,188.448356 L39.5669774,226.55568 Z M64.4675557,168.509648 C66.648321,166.319256 69.6060735,165.088707 72.6901413,165.088707 L196.72739,165.088707 C201.722464,165.088707 205.771772,161.021523 205.771772,156.004398 L205.771772,52.183734 C205.771772,47.1666092 201.722464,43.0994259 196.72739,43.0994259 L52.0172666,43.0994259 C47.022192,43.0994259 42.9728839,47.1666092 42.9728839,52.183734 L42.9728839,190.099206 L64.4675557,168.509648 Z" transform="scale(-1 1) rotate(17 -800.901 -742.116)"/>
    <circle cx="421.5" cy="126.5" r="17.5"/>
    <circle cx="373.5" cy="139.5" r="17.5"/>
    <circle cx="324.5" cy="153.5" r="17.5"/>
    <path d="M47.8299607,273.679262 C38.9745874,282.56758 23.8332765,276.272511 23.8332765,263.702531 L23.8332765,63.0379507 C23.8332765,41.3926407 41.315229,23.8456499 62.8803102,23.8456499 L237.811021,23.8456499 C259.376103,23.8456499 276.858055,41.3926407 276.858055,63.0379507 L276.858055,188.453313 C276.858055,210.098623 259.376103,227.645614 237.811021,227.645614 L93.6929837,227.645614 L47.8299607,273.679262 Z M77.9306598,203.559655 C80.5668459,200.913661 84.1422816,199.427157 87.8704118,199.427157 L237.811021,199.427157 C243.849244,199.427157 248.744191,194.514 248.744191,188.453313 L248.744191,63.0379507 C248.744191,56.9772639 243.849244,52.0641065 237.811021,52.0641065 L62.8803102,52.0641065 C56.8420875,52.0641065 51.9471408,56.9772639 51.9471408,63.0379507 L51.9471408,229.63984 L77.9306598,203.559655 Z" transform="rotate(-17 306.641 -607.594)"/>
  </g>
</svg>
