<svg xmlns="http://www.w3.org/2000/svg" width="209" height="36" viewBox="0 0 209 36">
  <path fill="#F2F5F9" fill-rule="evenodd" d="M60.8382331,22.9422857 C60.6741096,22.8085708 60.5407612,22.6182869 60.438184,22.3714286 L54.6528589,8.05371429 C54.6323435,7.99199969 54.6220859,7.89942919 54.6220859,7.776 C54.6220859,7.59085622 54.6887601,7.43142924 54.8221104,7.29771429 C54.9554608,7.16399933 55.1041955,7.09714286 55.268319,7.09714286 L57.8224785,7.09714286 C58.2327873,7.09714286 58.5097416,7.29256947 58.6533497,7.68342857 L62.7153865,18.4525714 L66.7774233,7.68342857 C66.8184542,7.53942785 66.9056435,7.4057149 67.0389939,7.28228571 C67.1723442,7.15885653 67.3518516,7.09714286 67.5775215,7.09714286 L70.131681,7.09714286 C70.3163199,7.09714286 70.4701834,7.16399933 70.5932761,7.29771429 C70.7163687,7.43142924 70.7779141,7.59085622 70.7779141,7.776 C70.7779141,7.89942919 70.7676565,7.99199969 70.7471411,8.05371429 L64.992589,22.3714286 C64.7669191,22.8857169 64.3976467,23.1428571 63.8847607,23.1428571 L61.5460123,23.1428571 C61.2382807,23.1428571 61.0023566,23.0760007 60.8382331,22.9422857 Z M74.4552883,21.4765714 C73.111527,20.1599934 72.3986262,18.2880121 72.3165644,15.8605714 L72.2857914,15.0891429 C72.2857914,12.5177014 72.957662,10.491436 74.3014233,9.01028571 C75.6451846,7.52913545 77.5069329,6.78857143 79.8867239,6.78857143 C82.3280613,6.78857143 84.2103247,7.52913545 85.5335706,9.01028571 C86.8568164,10.491436 87.5184294,12.4662734 87.5184294,14.9348571 L87.5184294,15.5828571 C87.5184294,15.7885725 87.4466265,15.9634279 87.3030184,16.1074286 C87.1594103,16.2514293 86.9747741,16.3234286 86.7491043,16.3234286 L76.5324663,16.3234286 L76.5324663,16.5702857 C76.5734971,17.7222915 76.8863529,18.6737105 77.4710429,19.4245714 C78.055733,20.1754323 78.8609519,20.5508571 79.8867239,20.5508571 C81.056104,20.5508571 82.0100577,20.077719 82.7486135,19.1314286 C82.9332525,18.9051417 83.0768584,18.766286 83.1794356,18.7148571 C83.2820128,18.6634283 83.4563914,18.6377143 83.7025767,18.6377143 L86.4106012,18.6377143 C86.5952402,18.6377143 86.7542325,18.6891423 86.8875828,18.792 C87.0209332,18.8948577 87.0876074,19.0388562 87.0876074,19.224 C87.0876074,19.7177168 86.7952667,20.2988538 86.2105767,20.9674286 C85.6258866,21.6360033 84.789895,22.2171404 83.7025767,22.7108571 C82.6152584,23.2045739 81.3535777,23.4514286 79.9174969,23.4514286 C77.6197677,23.4514286 75.7990497,22.7931494 74.4552883,21.4765714 Z M83.2717546,13.7005714 L83.2717546,13.6388571 C83.2717546,12.4251368 82.9691564,11.4531465 82.3639509,10.7228571 C81.7587454,9.99256778 80.9330114,9.62742857 79.8867239,9.62742857 C78.8404365,9.62742857 78.0198312,9.99256778 77.4248834,10.7228571 C76.8299357,11.4531465 76.5324663,12.4251368 76.5324663,13.6388571 L76.5324663,13.7005714 L83.2717546,13.7005714 Z M92.2420859,21.4765714 C90.8983246,20.1599934 90.1854237,18.2880121 90.103362,15.8605714 L90.072589,15.0891429 C90.072589,12.5177014 90.7444595,10.491436 92.0882209,9.01028571 C93.4319822,7.52913545 95.2937304,6.78857143 97.6735215,6.78857143 C100.114859,6.78857143 101.997122,7.52913545 103.320368,9.01028571 C104.643614,10.491436 105.305227,12.4662734 105.305227,14.9348571 L105.305227,15.5828571 C105.305227,15.7885725 105.233424,15.9634279 105.089816,16.1074286 C104.946208,16.2514293 104.761572,16.3234286 104.535902,16.3234286 L94.3192638,16.3234286 L94.3192638,16.5702857 C94.3602947,17.7222915 94.6731505,18.6737105 95.2578405,19.4245714 C95.8425305,20.1754323 96.6477495,20.5508571 97.6735215,20.5508571 C98.8429016,20.5508571 99.7968552,20.077719 100.535411,19.1314286 C100.72005,18.9051417 100.863656,18.766286 100.966233,18.7148571 C101.06881,18.6634283 101.243189,18.6377143 101.489374,18.6377143 L104.197399,18.6377143 C104.382038,18.6377143 104.54103,18.6891423 104.67438,18.792 C104.807731,18.8948577 104.874405,19.0388562 104.874405,19.224 C104.874405,19.7177168 104.582064,20.2988538 103.997374,20.9674286 C103.412684,21.6360033 102.576693,22.2171404 101.489374,22.7108571 C100.402056,23.2045739 99.1403753,23.4514286 97.7042945,23.4514286 C95.4065652,23.4514286 93.5858472,22.7931494 92.2420859,21.4765714 Z M101.058552,13.7005714 L101.058552,13.6388571 C101.058552,12.4251368 100.755954,11.4531465 100.150748,10.7228571 C99.545543,9.99256778 98.7198089,9.62742857 97.6735215,9.62742857 C96.627234,9.62742857 95.8066287,9.99256778 95.211681,10.7228571 C94.6167332,11.4531465 94.3192638,12.4251368 94.3192638,13.6388571 L94.3192638,13.7005714 L101.058552,13.7005714 Z M112.567656,21.2605714 L112.567656,22.4022857 C112.567656,22.608001 112.495853,22.7828564 112.352245,22.9268571 C112.208637,23.0708579 112.024001,23.1428571 111.798331,23.1428571 L109.336491,23.1428571 C109.131336,23.1428571 108.956958,23.0708579 108.81335,22.9268571 C108.669742,22.7828564 108.597939,22.608001 108.597939,22.4022857 L108.597939,1.97485714 C108.597939,1.7485703 108.669742,1.5685721 108.81335,1.43485714 C108.956958,1.30114219 109.131336,1.23428571 109.336491,1.23428571 L112.013742,1.23428571 C112.239412,1.23428571 112.41892,1.30114219 112.55227,1.43485714 C112.68562,1.5685721 112.752294,1.7485703 112.752294,1.97485714 L112.752294,8.82514286 C113.901159,7.46742178 115.470567,6.78857143 117.460564,6.78857143 C119.532624,6.78857143 121.127675,7.46227898 122.245767,8.80971429 C123.363858,10.1571496 123.953668,11.921132 124.015215,14.1017143 C124.03573,14.3485727 124.045988,14.6879978 124.045988,15.12 C124.045988,15.5314306 124.03573,15.8708558 124.015215,16.1382857 C123.933153,18.3600111 123.338214,20.1342791 122.23038,21.4611429 C121.122547,22.7880066 119.532624,23.4514286 117.460564,23.4514286 C115.326959,23.4514286 113.696006,22.7211502 112.567656,21.2605714 Z M119.799313,16.0457143 C119.819828,15.839999 119.830086,15.5314306 119.830086,15.12 C119.830086,14.7085694 119.819828,14.400001 119.799313,14.1942857 C119.655705,11.4788436 118.486342,10.1211429 116.29119,10.1211429 C115.162841,10.1211429 114.301205,10.4811393 113.706258,11.2011429 C113.11131,11.9211465 112.793325,12.7954234 112.752294,13.824 C112.731779,14.0708584 112.721521,14.4719972 112.721521,15.0274286 C112.721521,15.5622884 112.731779,15.9531416 112.752294,16.2 C112.793325,17.2902912 113.101052,18.2159962 113.675485,18.9771429 C114.249917,19.7382895 115.12181,20.1188571 116.29119,20.1188571 C118.486342,20.1188571 119.655705,18.7611564 119.799313,16.0457143 Z M127.55411,4.25828571 C127.410502,4.11428499 127.338699,3.9394296 127.338699,3.73371429 L127.338699,1.48114286 C127.338699,1.25485601 127.410502,1.06971501 127.55411,0.925714286 C127.697719,0.781713566 127.872097,0.709714286 128.077252,0.709714286 L130.908368,0.709714286 C131.134038,0.709714286 131.318674,0.781713566 131.462282,0.925714286 C131.60589,1.06971501 131.677693,1.25485601 131.677693,1.48114286 L131.677693,3.73371429 C131.677693,3.9394296 131.600762,4.11428499 131.446896,4.25828571 C131.29303,4.40228643 131.113522,4.47428571 130.908368,4.47428571 L128.077252,4.47428571 C127.872097,4.47428571 127.697719,4.40228643 127.55411,4.25828571 Z M127.677202,22.9268571 C127.533594,22.7828564 127.461791,22.608001 127.461791,22.4022857 L127.461791,7.83771429 C127.461791,7.61142744 127.533594,7.43142924 127.677202,7.29771429 C127.820811,7.16399933 127.995189,7.09714286 128.200344,7.09714286 L130.816049,7.09714286 C131.021203,7.09714286 131.195582,7.16914214 131.33919,7.31314286 C131.482798,7.45714358 131.554601,7.63199897 131.554601,7.83771429 L131.554601,22.4022857 C131.554601,22.608001 131.482798,22.7828564 131.33919,22.9268571 C131.195582,23.0708579 131.021203,23.1428571 130.816049,23.1428571 L128.200344,23.1428571 C127.995189,23.1428571 127.820811,23.0708579 127.677202,22.9268571 Z M135.647411,22.9268571 C135.503803,22.7828564 135.432,22.608001 135.432,22.4022857 L135.432,19.2857143 C135.432,19.079999 135.503803,18.9051436 135.647411,18.7611429 C135.791019,18.6171421 135.965398,18.5451429 136.170552,18.5451429 L139.278626,18.5451429 C139.48378,18.5451429 139.658159,18.6171421 139.801767,18.7611429 C139.945375,18.9051436 140.017178,19.079999 140.017178,19.2857143 L140.017178,22.4022857 C140.017178,22.608001 139.950504,22.7828564 139.817153,22.9268571 C139.683803,23.0708579 139.504296,23.1428571 139.278626,23.1428571 L136.170552,23.1428571 C135.965398,23.1428571 135.791019,23.0708579 135.647411,22.9268571 Z M145.202429,21.5691429 C143.858668,20.3142794 143.145767,18.5760111 143.063706,16.3542857 L143.032933,15.12 L143.063706,13.8857143 C143.145767,11.6639889 143.858668,9.92572056 145.202429,8.67085714 C146.546191,7.41599373 148.346394,6.78857143 150.603092,6.78857143 C152.223812,6.78857143 153.593197,7.07656855 154.711288,7.65257143 C155.82938,8.22857431 156.660243,8.93313869 157.203902,9.76628571 C157.747561,10.5994327 158.039902,11.3965676 158.080933,12.1577143 C158.101448,12.3634296 158.034774,12.538285 157.880908,12.6822857 C157.727042,12.8262864 157.547535,12.8982857 157.34238,12.8982857 L154.603583,12.8982857 C154.377913,12.8982857 154.213792,12.8520005 154.111215,12.7594286 C154.008638,12.6668567 153.906062,12.4971441 153.803485,12.2502857 C153.495753,11.4685675 153.090579,10.9028589 152.587951,10.5531429 C152.085323,10.2034268 151.444225,10.0285714 150.664638,10.0285714 C149.618351,10.0285714 148.802874,10.357711 148.218184,11.016 C147.633494,11.674289 147.320638,12.6822789 147.279607,14.04 L147.248834,15.1817143 L147.279607,16.2 C147.4027,18.8742991 148.531032,20.2114286 150.664638,20.2114286 C151.46474,20.2114286 152.110967,20.041716 152.603337,19.7022857 C153.095708,19.3628554 153.495753,18.792004 153.803485,17.9897143 C153.885546,17.7634274 153.982993,17.5988577 154.095828,17.496 C154.208663,17.3931423 154.377913,17.3417143 154.603583,17.3417143 L157.34238,17.3417143 C157.547535,17.3417143 157.727042,17.4137136 157.880908,17.5577143 C158.034774,17.701715 158.101448,17.8765704 158.080933,18.0822857 C158.039902,18.8022893 157.75269,19.578853 157.219288,20.412 C156.685887,21.245147 155.865282,21.959997 154.757448,22.5565714 C153.649614,23.1531458 152.264843,23.4514286 150.603092,23.4514286 C148.346394,23.4514286 146.546191,22.8240063 145.202429,21.5691429 Z M161.527509,22.9268571 C161.383901,22.7828564 161.312098,22.608001 161.312098,22.4022857 L161.312098,1.97485714 C161.312098,1.7485703 161.383901,1.5685721 161.527509,1.43485714 C161.671117,1.30114219 161.845496,1.23428571 162.05065,1.23428571 L164.850994,1.23428571 C165.076664,1.23428571 165.256171,1.30114219 165.389521,1.43485714 C165.522872,1.5685721 165.589546,1.7485703 165.589546,1.97485714 L165.589546,9.01028571 C166.820472,7.52913545 168.471941,6.78857143 170.544,6.78857143 C172.43142,6.78857143 173.939283,7.41085092 175.067632,8.65542857 C176.195981,9.90000622 176.760147,11.5919893 176.760147,13.7314286 L176.760147,22.4022857 C176.760147,22.608001 176.693473,22.7828564 176.560123,22.9268571 C176.426772,23.0708579 176.247265,23.1428571 176.021595,23.1428571 L173.221252,23.1428571 C172.995582,23.1428571 172.810946,23.0708579 172.667337,22.9268571 C172.523729,22.7828564 172.451926,22.608001 172.451926,22.4022857 L172.451926,13.9165714 C172.451926,12.7234226 172.159586,11.7925748 171.574896,11.124 C170.990206,10.4554252 170.154214,10.1211429 169.066896,10.1211429 C168.020608,10.1211429 167.179488,10.460568 166.543509,11.1394286 C165.907531,11.8182891 165.589546,12.7439941 165.589546,13.9165714 L165.589546,22.4022857 C165.589546,22.608001 165.522872,22.7828564 165.389521,22.9268571 C165.256171,23.0708579 165.076664,23.1428571 164.850994,23.1428571 L162.05065,23.1428571 C161.845496,23.1428571 161.671117,23.0708579 161.527509,22.9268571 Z M182.437767,22.8188571 C181.565861,22.3971407 180.878604,21.8262893 180.375975,21.1062857 C179.873347,20.3862821 179.622037,19.59429 179.622037,18.7302857 C179.622037,17.3314216 180.186203,16.2000043 181.314552,15.336 C182.442901,14.4719957 183.991794,13.8857158 185.961276,13.5771429 L190.177178,12.96 L190.177178,12.312 C190.177178,11.4274241 189.951511,10.7588594 189.500172,10.3062857 C189.048832,9.85371202 188.330802,9.62742857 187.346061,9.62742857 C186.669052,9.62742857 186.125401,9.75085591 185.715092,9.99771429 C185.304783,10.2445727 184.971412,10.4965701 184.714969,10.7537143 L184.207215,11.2628571 C184.125153,11.5097155 183.971289,11.6331429 183.74562,11.6331429 L181.345325,11.6331429 C181.160686,11.6331429 181.001694,11.5714292 180.868344,11.448 C180.734993,11.3245708 180.668319,11.160001 180.668319,10.9542857 C180.688834,10.4399974 180.940145,9.85886038 181.422258,9.21085714 C181.904371,8.5628539 182.648044,7.99714527 183.653301,7.51371429 C184.658557,7.0302833 185.899723,6.78857143 187.376834,6.78857143 C189.797656,6.78857143 191.561958,7.33370883 192.669791,8.424 C193.777625,9.51429117 194.331534,10.9439912 194.331534,12.7131429 L194.331534,22.4022857 C194.331534,22.608001 194.26486,22.7828564 194.131509,22.9268571 C193.998159,23.0708579 193.818651,23.1428571 193.592982,23.1428571 L191.038822,23.1428571 C190.833668,23.1428571 190.659289,23.0708579 190.515681,22.9268571 C190.372073,22.7828564 190.30027,22.608001 190.30027,22.4022857 L190.30027,21.1988571 C189.84893,21.8571461 189.212961,22.3971407 188.392344,22.8188571 C187.571726,23.2405735 186.545969,23.4514286 185.315043,23.4514286 C184.268756,23.4514286 183.309673,23.2405735 182.437767,22.8188571 Z M189.130896,19.3782857 C189.848936,18.6377106 190.207951,17.568007 190.207951,16.1691429 L190.207951,15.552 L187.13065,16.0457143 C184.771375,16.4160019 183.591755,17.2079939 183.591755,18.4217143 C183.591755,19.0800033 183.86358,19.5891411 184.407239,19.9491429 C184.950898,20.3091447 185.602254,20.4891429 186.361325,20.4891429 C187.489674,20.4891429 188.412855,20.1188608 189.130896,19.3782857 Z M201.163141,21.6771429 C200.219431,20.6999951 199.747583,19.2651523 199.747583,17.3725714 L199.747583,10.3988571 L197.316515,10.3988571 C197.111361,10.3988571 196.936982,10.3268579 196.793374,10.1828571 C196.649766,10.0388564 196.577963,9.86400103 196.577963,9.65828571 L196.577963,7.83771429 C196.577963,7.63199897 196.649766,7.45714358 196.793374,7.31314286 C196.936982,7.16914214 197.111361,7.09714286 197.316515,7.09714286 L199.747583,7.09714286 L199.747583,1.97485714 C199.747583,1.7485703 199.819386,1.5685721 199.962994,1.43485714 C200.106602,1.30114219 200.280981,1.23428571 200.486135,1.23428571 L203.040294,1.23428571 C203.265964,1.23428571 203.445472,1.30114219 203.578822,1.43485714 C203.712172,1.5685721 203.778847,1.7485703 203.778847,1.97485714 L203.778847,7.09714286 L207.625472,7.09714286 C207.830627,7.09714286 208.005005,7.16914214 208.148613,7.31314286 C208.292222,7.45714358 208.364025,7.63199897 208.364025,7.83771429 L208.364025,9.65828571 C208.364025,9.86400103 208.292222,10.0388564 208.148613,10.1828571 C208.005005,10.3268579 207.830627,10.3988571 207.625472,10.3988571 L203.778847,10.3988571 L203.778847,17.0331429 C203.778847,17.9177187 203.93271,18.5862835 204.240442,19.0388571 C204.548173,19.4914308 205.050794,19.7177143 205.748319,19.7177143 L207.902429,19.7177143 C208.128099,19.7177143 208.307607,19.7845708 208.440957,19.9182857 C208.574307,20.0520007 208.640982,20.2319989 208.640982,20.4582857 L208.640982,22.4022857 C208.640982,22.608001 208.574307,22.7828564 208.440957,22.9268571 C208.307607,23.0708579 208.128099,23.1428571 207.902429,23.1428571 L205.379043,23.1428571 C203.512138,23.1428571 202.106851,22.6542906 201.163141,21.6771429 Z M3.92440476,34.7922774 C2.71278523,36.0072096 0.641104294,35.1467451 0.641104294,33.4285714 L0.641104294,6 C0.641104294,3.0413317 3.03303904,0.642857143 5.98364008,0.642857143 L29.9182004,0.642857143 C32.8688014,0.642857143 35.2607362,3.0413317 35.2607362,6 L35.2607362,23.1428571 C35.2607362,26.1015254 32.8688014,28.5 29.9182004,28.5 L10.1995253,28.5 L3.92440476,34.7922774 Z M8.0428754,25.2077226 C8.40356654,24.8460453 8.89276869,24.6428571 9.40286299,24.6428571 L29.9182004,24.6428571 C30.7443687,24.6428571 31.4141104,23.9712843 31.4141104,23.1428571 L31.4141104,6 C31.4141104,5.17157288 30.7443687,4.5 29.9182004,4.5 L5.98364008,4.5 C5.15747179,4.5 4.48773006,5.17157288 4.48773006,6 L4.48773006,28.7725881 L8.0428754,25.2077226 Z"/>
</svg>
